<svg width="113" height="31" viewBox="0 0 113 31" fill="none" xmlns="http://www.w3.org/2000/svg">
<path d="M102.781 26.0281L102.202 29.2665H105.761L105.874 28.6337H103.035L103.388 26.647H106.227L106.34 26.0142H104.16L102.781 26.0281Z" fill="#808080"/>
<path d="M103.158 23.915L103.045 24.5478H103.766H104.486H106.604L106.717 23.915H103.158Z" fill="#808080"/>
<path d="M80.7451 29.2658H79.8132L78.0999 26.8836L77.4645 27.4512L77.1397 29.2658H76.4243L77.3751 23.915H78.0952L77.5963 26.7068L80.7169 23.915H81.5876L78.7259 26.4276L80.7451 29.2658Z" fill="#808080"/>
<path d="M87.2307 27.7363C87.1931 27.9457 87.1084 28.1504 86.9719 28.3551C86.8401 28.5599 86.6706 28.732 86.4682 28.8716C86.247 29.0251 86.0023 29.1461 85.7293 29.2299C85.4563 29.3136 85.1409 29.3602 84.7785 29.3602C84.3879 29.3602 84.0443 29.3229 83.7477 29.2531C83.4512 29.1787 83.1547 29.0763 82.8582 28.9321L83.0182 28.0434H83.07C83.3006 28.2667 83.5877 28.4435 83.9219 28.5645C84.2561 28.6855 84.5808 28.746 84.8962 28.746C85.3386 28.746 85.701 28.6622 85.9787 28.4994C86.2564 28.3319 86.4212 28.1132 86.4682 27.8387C86.5106 27.6014 86.4824 27.4246 86.3882 27.3129C86.2894 27.2012 86.1294 27.1128 85.8987 27.0523C85.7246 27.0058 85.5363 26.9639 85.3292 26.936C85.1221 26.9034 84.9056 26.8662 84.6797 26.8197C84.2184 26.7173 83.8936 26.5452 83.7054 26.3032C83.5171 26.0613 83.4606 25.7449 83.5265 25.354C83.6065 24.9074 83.8654 24.5398 84.2937 24.2513C84.7267 23.9675 85.2351 23.8232 85.8234 23.8232C86.2047 23.8232 86.5436 23.8605 86.8495 23.9303C87.1554 24.0001 87.419 24.0885 87.6449 24.1955L87.4943 25.0376H87.4425C87.2684 24.8655 87.0236 24.7212 86.7083 24.6096C86.3929 24.4979 86.0635 24.4374 85.7105 24.4374C85.3245 24.4374 85.0044 24.5165 84.7409 24.6747C84.4773 24.8329 84.3267 25.0376 84.2796 25.2842C84.2419 25.5076 84.2655 25.6797 84.3596 25.81C84.4537 25.9356 84.642 26.0334 84.9197 26.1031C85.0703 26.1357 85.2821 26.1776 85.5598 26.2241C85.8375 26.2706 86.0682 26.3218 86.2564 26.373C86.6377 26.48 86.9107 26.6382 87.0801 26.8523C87.2449 27.0663 87.2919 27.3641 87.226 27.7456L87.2307 27.7363Z" fill="#808080"/>
<path d="M93.7918 25.5296C93.7494 25.7669 93.6694 25.9856 93.547 26.1903C93.4293 26.3904 93.2787 26.5672 93.1046 26.7161C92.8834 26.9022 92.6433 27.0371 92.3703 27.1302C92.102 27.2232 91.7726 27.2698 91.3866 27.2698H90.6665L90.3088 29.2658H89.5886L90.5441 23.915H92.0079C92.3327 23.915 92.601 23.943 92.8175 23.9941C93.034 24.05 93.2175 24.1337 93.3682 24.2454C93.547 24.3803 93.6788 24.5525 93.7541 24.7572C93.8294 24.9619 93.8388 25.2178 93.7824 25.5296H93.7918ZM93.0434 25.5482C93.0763 25.3621 93.0716 25.2039 93.0293 25.0689C92.9869 24.934 92.9069 24.8223 92.7939 24.7339C92.6904 24.6595 92.568 24.6083 92.4268 24.5757C92.2856 24.5432 92.0973 24.5292 91.8714 24.5292H91.1607L90.7794 26.6649H91.3866C91.6784 26.6649 91.9185 26.637 92.1067 26.5858C92.295 26.5346 92.4598 26.4509 92.5915 26.3392C92.7233 26.2229 92.8269 26.1019 92.8975 25.9763C92.9681 25.8506 93.0151 25.7064 93.0434 25.5482Z" fill="#808080"/>
<path d="M100.023 29.2658H99.0915L97.6653 27.1395H96.6534L96.2721 29.2658H95.552L96.5075 23.915H98.0183C98.3431 23.915 98.6114 23.9383 98.8232 23.9755C99.035 24.0174 99.2139 24.0918 99.3692 24.1989C99.5433 24.3198 99.6704 24.4734 99.7457 24.6595C99.821 24.8456 99.8352 25.0783 99.7834 25.3667C99.7128 25.7529 99.5575 26.074 99.3174 26.3345C99.0774 26.5951 98.7714 26.7905 98.4043 26.9208L100.019 29.2612L100.023 29.2658ZM99.0303 25.4226C99.0585 25.269 99.0538 25.1341 99.0209 25.0131C98.9879 24.8968 98.9173 24.7944 98.8044 24.7153C98.7149 24.6455 98.5973 24.599 98.4608 24.5711C98.3243 24.5432 98.1596 24.5292 97.9619 24.5292H97.1194L96.7569 26.5486H97.4818C97.7077 26.5486 97.9101 26.53 98.0889 26.4881C98.2631 26.4462 98.4231 26.3764 98.5596 26.2647C98.6867 26.1624 98.7855 26.0507 98.8609 25.9204C98.9362 25.7901 98.9926 25.6226 99.0256 25.4226H99.0303Z" fill="#808080"/>
<path d="M112.581 27.7363C112.543 27.9457 112.458 28.1504 112.322 28.3551C112.19 28.5599 112.02 28.732 111.818 28.8716C111.597 29.0251 111.352 29.1461 111.079 29.2299C110.806 29.3136 110.491 29.3602 110.128 29.3602C109.738 29.3602 109.394 29.3229 109.098 29.2531C108.801 29.1787 108.505 29.0763 108.208 28.9321L108.368 28.0434H108.42C108.65 28.2667 108.938 28.4435 109.272 28.5645C109.606 28.6855 109.931 28.746 110.246 28.746C110.688 28.746 111.051 28.6622 111.329 28.4994C111.606 28.3319 111.771 28.1132 111.818 27.8387C111.86 27.6014 111.832 27.4246 111.738 27.3129C111.639 27.2012 111.479 27.1128 111.249 27.0523C111.074 27.0058 110.886 26.9639 110.679 26.936C110.472 26.9034 110.255 26.8662 110.03 26.8197C109.568 26.7173 109.244 26.5452 109.06 26.3032C108.872 26.0613 108.815 25.7449 108.881 25.354C108.961 24.9074 109.22 24.5398 109.648 24.2513C110.081 23.9675 110.59 23.8232 111.178 23.8232C111.559 23.8232 111.898 23.8605 112.204 23.9303C112.51 24.0001 112.774 24.0885 112.999 24.1955L112.849 25.0376H112.797C112.623 24.8655 112.378 24.7212 112.063 24.6096C111.747 24.4979 111.418 24.4374 111.065 24.4374C110.679 24.4374 110.359 24.5165 110.095 24.6747C109.832 24.8329 109.681 25.0376 109.634 25.2842C109.597 25.5076 109.62 25.6797 109.714 25.81C109.808 25.9356 109.997 26.0334 110.274 26.1031C110.425 26.1357 110.637 26.1776 110.914 26.2241C111.192 26.2706 111.423 26.3218 111.611 26.373C111.992 26.48 112.265 26.6382 112.43 26.8523C112.595 27.0663 112.642 27.3641 112.576 27.7456L112.581 27.7363Z" fill="#808080"/>
<path d="M70.7993 26.0281L70.2251 29.2665H73.7787L73.8917 28.6337H71.0535L71.4112 26.647H74.2494L74.3623 26.0142H72.1784L70.7993 26.0281Z" fill="#808080"/>
<path d="M71.176 23.915L71.063 24.5478H71.7831H72.5033H74.6213L74.7343 23.915H71.176Z" fill="#808080"/>
<path d="M37.6163 17.2019C37.894 17.2903 38.1858 17.3601 38.487 17.4113C38.7412 17.4764 39.0283 17.523 39.3484 17.5648C39.6684 17.6021 39.9979 17.6207 40.3227 17.6207C40.9016 17.6207 41.1934 17.4066 41.1934 16.9739C41.1934 16.8111 41.104 16.6389 40.9298 16.4714C40.751 16.2993 40.5298 16.1085 40.2568 15.8991C39.9838 15.6897 39.6967 15.4571 39.386 15.2058C39.0754 14.9546 38.7883 14.6614 38.5153 14.3311C38.2423 14.0007 38.0211 13.6285 37.8422 13.2191C37.6633 12.8096 37.5786 12.335 37.5786 11.8046C37.5786 11.209 37.6869 10.6832 37.8987 10.2273C38.1152 9.77128 38.4117 9.38975 38.7883 9.08731C39.1695 8.78488 39.6119 8.55223 40.125 8.39403C40.638 8.23584 41.184 8.15674 41.7629 8.15674C42.0642 8.15674 42.3701 8.1707 42.6713 8.20327C42.9726 8.23584 43.2456 8.26375 43.4856 8.28702C43.7633 8.32424 44.0363 8.36146 44.2999 8.40334V11.9581C44.1963 11.9442 44.0834 11.9349 43.961 11.9209C43.8621 11.9069 43.7445 11.8976 43.6221 11.8837C43.495 11.8697 43.3632 11.8651 43.222 11.8651C43.1467 11.8651 43.0526 11.8651 42.9396 11.8744C42.8267 11.879 42.7184 11.8976 42.6196 11.9209C42.516 11.9488 42.4313 11.9907 42.356 12.0558C42.2807 12.121 42.243 12.2094 42.243 12.3211C42.243 12.4234 42.3277 12.549 42.4972 12.7026C42.6666 12.8561 42.8737 13.0329 43.1232 13.233C43.3679 13.4377 43.6409 13.6704 43.9375 13.9356C44.234 14.2008 44.507 14.5079 44.7517 14.8476C44.9965 15.1919 45.2083 15.5781 45.3777 16.0061C45.5472 16.4388 45.6319 16.9181 45.6319 17.4532C45.6319 17.9882 45.5425 18.5326 45.3683 19.0212C45.1895 19.5097 44.9165 19.9331 44.5446 20.2961C44.1728 20.659 43.6974 20.9428 43.1138 21.1522C42.5348 21.3616 41.8429 21.4639 41.0475 21.4639C40.5674 21.4639 40.1203 21.4407 39.7108 21.3988C39.3013 21.3523 38.9389 21.3011 38.6235 21.2359C38.2564 21.1708 37.9222 21.0964 37.621 21.008V17.2066L37.6163 17.2019Z" fill="#AE272F"/>
<path d="M51.2382 8.15137H46.9551V21.5004H51.2382V8.15137Z" fill="#AE272F"/>
<path d="M52.7537 14.8279C52.7537 13.8136 52.9326 12.897 53.2856 12.0827C53.6386 11.2638 54.1187 10.5659 54.7259 9.97963C55.333 9.39802 56.0391 8.95135 56.8486 8.6396C57.6582 8.32786 58.5148 8.17432 59.4232 8.17432C60.1434 8.17432 60.7835 8.24411 61.3436 8.38369C61.9037 8.52328 62.3885 8.68148 62.7933 8.85829C63.2592 9.06301 63.664 9.2817 64.0076 9.52365L62.0166 13.0412C61.8143 12.8877 61.593 12.7434 61.353 12.6038C61.1365 12.5015 60.8823 12.4038 60.5858 12.3107C60.2893 12.2177 59.9504 12.1665 59.5738 12.1665C59.1973 12.1665 58.8208 12.2363 58.496 12.3759C58.1665 12.5154 57.8794 12.7062 57.6346 12.9482C57.3899 13.1901 57.1969 13.4693 57.0557 13.795C56.9145 14.116 56.8486 14.465 56.8486 14.8326C56.8486 15.2001 56.9192 15.5445 57.0651 15.8702C57.211 16.1912 57.4087 16.475 57.6629 16.717C57.9171 16.9589 58.2136 17.1497 58.5525 17.2893C58.8914 17.4289 59.2679 17.4987 59.668 17.4987C60.068 17.4987 60.4305 17.4475 60.7458 17.3451C61.0612 17.2428 61.3247 17.1311 61.5413 17.0008C61.7954 16.8612 62.0166 16.6984 62.2049 16.5076L64.1959 20.0252C63.857 20.3043 63.4522 20.5509 62.9815 20.765C62.5767 20.9418 62.092 21.1093 61.5224 21.2582C60.9529 21.4117 60.3034 21.4862 59.5738 21.4862C58.5901 21.4862 57.6817 21.3233 56.8439 21.0023C56.0108 20.6812 55.2907 20.2252 54.6835 19.6436C54.0763 19.062 53.6057 18.3594 53.2621 17.5405C52.9232 16.7216 52.749 15.819 52.749 14.8326L52.7537 14.8279Z" fill="#AE272F"/>
<path d="M65.1418 8.2168H72.5832V11.6925H69.1755V13.1628H72.5268V16.457H69.1755V17.9878H72.7197V21.4635H65.1418V8.2168Z" fill="#AE272F"/>
<path d="M84.7546 13.2554C84.7546 14.1721 84.5946 14.9537 84.2792 15.6005C83.9591 16.2472 83.5261 16.7684 82.9801 17.1639C82.4295 17.564 81.7893 17.8571 81.0504 18.0432C80.3161 18.2294 79.5254 18.3224 78.6782 18.3224V21.4957H74.4468V8.18848H78.6782C79.5254 8.18848 80.3161 8.28153 81.0504 8.46765C81.7846 8.65376 82.4295 8.94689 82.9801 9.34704C83.5308 9.74719 83.9639 10.2683 84.2792 10.9104C84.5946 11.5572 84.7546 12.3342 84.7546 13.2554ZM78.6734 14.7304H78.8523C79.4077 14.7304 79.8078 14.6001 80.0525 14.3396C80.2973 14.079 80.4197 13.7207 80.4197 13.2508C80.4197 12.7809 80.2973 12.4226 80.0525 12.162C79.8078 11.9015 79.4077 11.7712 78.8523 11.7712H78.6734V14.7211V14.7304Z" fill="#AE272F"/>
<path d="M98.6677 11.6354H96.3379V8.13184H105.163V11.6354H102.833V21.4902H98.6677V11.6354Z" fill="#AE272F"/>
<path d="M89.9323 8.18311L87.4895 12.4405L91.4149 10.6166L89.9323 8.18311Z" fill="#AE272F"/>
<path d="M93.1093 18.3595L87.3623 21.4909H97.4724L92.4503 12.7808L90.577 14.6559L91.8526 16.5077L93.1093 18.3595Z" fill="#AE272F"/>
<path d="M86.6564 14.3521L82.8298 21.4895H85.0561L88.6192 17.0972L86.6564 14.3521Z" fill="#AE272F"/>
<path d="M90.5772 14.6699L88.3933 17.4151L91.0432 15.3492L90.5772 14.6699Z" fill="#CACAC9"/>
<path d="M20.7378 29.5306C20.7378 30.1587 16.2005 30.6705 10.6041 30.6705C5.00778 30.6705 0.470459 30.1634 0.470459 29.5306C0.470459 28.8978 5.00778 28.3906 10.6041 28.3906C16.2005 28.3906 20.7378 28.9024 20.7378 29.5306Z" fill="#C7C5C4"/>
<path d="M22.2489 28.419C21.9476 29.2239 21.0392 29.6334 20.225 29.3356L1.15785 22.3237C0.343581 22.0259 -0.0706139 21.1279 0.230619 20.323L7.32371 1.47423C7.62495 0.669287 8.53335 0.259835 9.34762 0.557618L28.4194 7.56949C29.2337 7.86727 29.6479 8.76527 29.3467 9.57022L22.2536 28.4236" fill="#942027"/>
<path d="M21.8157 27.6376C21.5286 28.396 20.6767 28.7822 19.9142 28.4984L1.94845 21.896C1.18125 21.6122 0.79059 20.7747 1.0777 20.0162L7.7566 2.25625C8.04371 1.49783 8.89564 1.11165 9.65814 1.39547L27.6239 8.00254C28.3911 8.28636 28.7817 9.12388 28.4946 9.8823L21.811 27.6423" fill="#AE272F"/>
<path d="M20.4321 29.5635C20.1403 29.5635 19.8485 29.5124 19.5755 29.41L1.60506 22.8076C0.988473 22.5796 0.498969 22.1283 0.225977 21.5374C-0.0470157 20.9464 -0.0752563 20.2857 0.155375 19.6762L6.83898 1.91622C7.1967 0.967032 8.12393 0.32959 9.1453 0.32959C9.43712 0.32959 9.72894 0.380771 10.0019 0.483134L27.9677 7.0902C28.5842 7.31819 29.0737 7.76487 29.3467 8.36044C29.6197 8.95135 29.6433 9.61206 29.4173 10.2216L22.7337 27.9816C22.376 28.9308 21.4488 29.5682 20.4274 29.5682M9.1453 2.27449C8.97585 2.27449 8.76405 2.3722 8.67933 2.59554L2.00043 20.3555C1.93924 20.523 1.9816 20.6626 2.01455 20.7324C2.04749 20.8022 2.12751 20.9278 2.29225 20.9883L20.258 27.5907C20.4792 27.6745 20.7851 27.6 20.8981 27.3023L27.5817 9.54226C27.6429 9.37476 27.6005 9.23518 27.5676 9.16538C27.5346 9.09559 27.4593 8.96996 27.2899 8.90947L9.31945 2.30706C9.26297 2.28845 9.20649 2.27449 9.1453 2.27449Z" fill="#93282C"/>
<path d="M27.3939 8.96461L19.303 12.5799L16.3142 14.1293L16.5636 15.018L17.0202 16.6232L17.7215 19.0939L4.82967 20.071L13.1701 15.7531L13.0618 15.3763L2.01032 20.3176L1.9962 20.3502C1.93501 20.5177 1.97737 20.6573 2.01032 20.7271C2.04327 20.7969 2.12328 20.9225 2.28802 20.983L20.2537 27.5854C20.3102 27.604 20.3714 27.618 20.4326 27.618C20.6162 27.618 20.8091 27.5202 20.8939 27.2969L27.5775 9.53692C27.6387 9.36941 27.5963 9.22983 27.5634 9.16003C27.5398 9.10885 27.488 9.0251 27.3986 8.95996" fill="#93282C"/>
<path d="M28.6877 8.3877L27.3981 8.96465C27.4922 9.02979 27.5393 9.10889 27.5628 9.16472C27.5958 9.23452 27.6381 9.3741 27.5769 9.54161L20.8933 27.3016C20.8086 27.5249 20.6156 27.6226 20.4321 27.6226C20.3709 27.6226 20.3097 27.6133 20.2532 27.5901L2.2922 20.983C2.12276 20.9225 2.04745 20.7969 2.0145 20.7271C1.98155 20.6573 1.93919 20.5177 2.00038 20.3502L2.0145 20.3176L0.80957 20.8574C0.851931 21.1598 1.05903 21.4204 1.36968 21.5367L20.465 28.5579C20.5639 28.5951 20.6627 28.609 20.7568 28.609C21.0957 28.609 21.397 28.3904 21.524 28.0461L28.683 9.02049C28.763 8.80645 28.7772 8.58777 28.6924 8.39235" fill="#6C2B2E"/>
<path d="M24.6777 9.80762L11.7671 10.7894L12.4684 13.26L13.1744 15.7586L24.6777 9.80762Z" fill="white"/>
<path d="M4.8335 20.0709L17.7206 19.0938L17.024 16.6231L16.3133 14.1245L4.8335 20.0709Z" fill="#CFD0CE"/>
<path d="M16.3188 14.1299L16.5683 15.0186L16.3188 14.1299Z" fill="#741516"/>
<path d="M16.3136 14.1245L13.1318 15.7763L16.5678 15.0179L16.3183 14.1292L16.3136 14.1245Z" fill="#B1B3B2"/>
<path d="M37.8144 4.38332L38.3886 4.36471L39.3112 5.87689H39.763L38.7181 4.17859L39.7113 2.45703H39.2688L38.3839 4.0297L37.8144 4.04831V2.45703H37.4285V5.87689H37.8144V4.38332Z" fill="#808080"/>
<path d="M42.7568 5.54188H41.0341V4.30422H42.4556V3.97387H41.0341V2.79204H42.7568V2.45703H40.6482V5.87689H42.7568V5.54188Z" fill="#808080"/>
<path d="M43.4299 2.79669H44.4937V5.87689H44.8749V2.79669H45.9292V2.45703H43.4299V2.79669Z" fill="#808080"/>
<path d="M47.1811 2.45703H46.7952V5.87689H47.1811V2.45703Z" fill="#808080"/>
<path d="M48.7861 4.38332L49.3603 4.36471L50.2829 5.87689H50.7347L49.6898 4.17859L50.6829 2.45703H50.2405L49.3556 4.0297L48.7861 4.04831V2.45703H48.4001V5.87689H48.7861V4.38332Z" fill="#808080"/>
<path d="M53.676 5.87689H54.0573L53.1065 2.45703H52.264L51.3132 5.87689H51.6945L51.9439 4.9975H53.4266L53.676 5.87689ZM52.0287 4.65784L52.5558 2.78273H52.8147L53.3419 4.65784H52.0334H52.0287Z" fill="#808080"/>
<path d="M56.5139 3.9772C56.6787 4.10748 56.9564 4.21449 57.3423 4.29824C57.6388 4.35408 57.8412 4.42387 57.9495 4.50297C58.0578 4.58207 58.1142 4.717 58.1142 4.90312C58.1142 5.3591 57.8695 5.59174 57.3753 5.59174C57.1399 5.59174 56.7916 5.56382 56.3398 5.50334L56.3021 5.81973L56.481 5.84299C56.8481 5.89883 57.1541 5.92675 57.3941 5.92675C58.1331 5.92675 58.5002 5.57778 58.5002 4.8752C58.5002 4.59137 58.4249 4.38665 58.279 4.26567C58.1331 4.14005 57.8836 4.04234 57.5306 3.96324C57.1776 3.88414 56.947 3.80969 56.8293 3.73059C56.7163 3.65149 56.6551 3.51191 56.6551 3.30253C56.6551 2.9303 56.9046 2.74419 57.4035 2.74419C57.5965 2.74419 57.926 2.7721 58.3872 2.82794L58.4202 2.50689L58.2507 2.48363C57.9118 2.43244 57.62 2.40918 57.3753 2.40918C56.6316 2.40918 56.2598 2.71627 56.2598 3.33045C56.2598 3.63754 56.3398 3.85622 56.5045 3.9865L56.5139 3.9772Z" fill="#808080"/>
<path d="M61.6452 5.54188H59.9225V4.30422H61.344V3.97387H59.9225V2.79204H61.6452V2.45703H59.5413V5.87689H61.6452V5.54188Z" fill="#808080"/>
<path d="M65.6457 2.86183V5.87689H66.0316V2.45703H65.335L64.356 5.35111L63.3723 2.45703H62.6804V5.87689H63.0664V2.86183H63.1323L64.1395 5.75591H64.5678L65.5751 2.86183H65.6457Z" fill="#808080"/>
<path d="M67.5334 5.67216C67.7358 5.84432 68.037 5.92807 68.4371 5.92807C68.8372 5.92807 69.1384 5.84432 69.3455 5.67216C69.5526 5.5 69.6515 5.22549 69.6515 4.8393V2.45703H69.2702V4.8486C69.2702 5.10916 69.1996 5.29993 69.0584 5.41625C68.9172 5.53258 68.7054 5.59306 68.4277 5.59306C67.8864 5.59306 67.6181 5.34646 67.6181 4.85326V2.45703H67.2322V4.8393C67.2322 5.22083 67.331 5.5 67.5334 5.67216Z" fill="#808080"/>
<path d="M71.1427 4.9975H72.6253L72.8748 5.87689H73.256L72.3052 2.45703H71.4627L70.512 5.87689H70.8932L71.1427 4.9975ZM71.7545 2.78273H72.0134L72.5406 4.65784H71.2321L71.7593 2.78273H71.7545Z" fill="#808080"/>
<path d="M76.123 6.01647C76.2172 5.88619 76.2642 5.68612 76.2642 5.40695V2.45703H75.8783V5.35577C75.8783 5.59772 75.8453 5.75126 75.7747 5.80709C75.7041 5.86293 75.5535 5.8955 75.3135 5.8955V6.23516C75.4594 6.23516 75.5771 6.23051 75.6665 6.2212C75.8924 6.19328 76.043 6.12814 76.123 6.01647Z" fill="#808080"/>
<path d="M77.7938 4.9975H79.2764L79.5259 5.87689H79.9071L78.9564 2.45703H78.1139L77.1631 5.87689H77.5443L77.7938 4.9975ZM78.4057 2.78273H78.6645L79.1917 4.65784H77.8832L78.4104 2.78273H78.4057Z" fill="#808080"/>
<path d="M82.6888 5.74661C83.1218 5.52327 83.3384 4.97888 83.3384 4.1181C83.3384 3.704 83.2866 3.37365 83.1783 3.11774C82.9948 2.67572 82.6229 2.45703 82.0581 2.45703H80.825V5.87689H82.0581C82.3029 5.87689 82.5147 5.83036 82.6888 5.74195V5.74661ZM81.2062 2.79669H82.0581C82.2323 2.79669 82.3782 2.82926 82.5006 2.8944C82.7971 3.05725 82.9477 3.4667 82.9477 4.12276C82.9477 5.07194 82.6512 5.54653 82.0628 5.54653H81.2109V2.79204L81.2062 2.79669Z" fill="#808080"/>
<path d="M84.8117 2.45703H84.4258V5.87689H84.8117V2.45703Z" fill="#808080"/>
<path d="M87.8894 2.86183H87.96L88.9625 5.75591H89.3955L90.3981 2.86183H90.4687V5.87689H90.8546V2.45703H90.158L89.179 5.35111L88.2 2.45703H87.5034V5.87689H87.8894V2.86183Z" fill="#808080"/>
<path d="M92.3564 5.67216C92.5588 5.84432 92.86 5.92807 93.2601 5.92807C93.6602 5.92807 93.9614 5.84432 94.1685 5.67216C94.3756 5.5 94.4745 5.22549 94.4745 4.8393V2.45703H94.0932V4.8486C94.0932 5.10916 94.0226 5.29993 93.8814 5.41625C93.7402 5.53258 93.5284 5.59306 93.2507 5.59306C92.7094 5.59306 92.4411 5.34646 92.4411 4.85326V2.45703H92.0552V4.8393C92.0552 5.22083 92.154 5.5 92.3564 5.67216Z" fill="#808080"/>
<path d="M97.5431 5.74661C97.9761 5.52327 98.1926 4.97888 98.1926 4.1181C98.1926 3.704 98.1408 3.37365 98.0326 3.11774C97.849 2.67572 97.4772 2.45703 96.9124 2.45703H95.6792V5.87689H96.9124C97.1571 5.87689 97.3689 5.83036 97.5431 5.74195V5.74661ZM96.0604 2.79669H96.9124C97.0865 2.79669 97.2324 2.82926 97.3548 2.8944C97.6513 3.05725 97.8019 3.4667 97.8019 4.12276C97.8019 5.07194 97.5054 5.54653 96.9171 5.54653H96.0652V2.79204L96.0604 2.79669Z" fill="#808080"/>
<path d="M99.5338 4.9975H101.016L101.266 5.87689H101.647L100.696 2.45703H99.8538L98.9031 5.87689H99.2843L99.5338 4.9975ZM100.146 2.78273H100.405L100.932 4.65784H99.6232L100.15 2.78273H100.146Z" fill="#808080"/>
<path d="M102.947 4.33214H104.707V5.87689H105.088V2.45703H104.707V3.98782H102.947V2.45703H102.561V5.87689H102.947V4.33214Z" fill="#808080"/>
</svg>
